<mxfile host="app.diagrams.net" modified="2023-06-22T10:40:32.675Z" agent="Mozilla/5.0 (Windows NT 10.0; Win64; x64) AppleWebKit/537.36 (KHTML, like Gecko) Chrome/114.0.0.0 Safari/537.36" etag="8JsV9ccWmix-XvpKcv2R" version="21.5.0" type="github">
  <diagram name="Page-1" id="MaEiRrORKyQMFVsaD43B">
    <mxGraphModel dx="875" dy="483" grid="1" gridSize="10" guides="1" tooltips="1" connect="1" arrows="1" fold="1" page="1" pageScale="1" pageWidth="850" pageHeight="1100" math="0" shadow="0">
      <root>
        <mxCell id="0" />
        <mxCell id="1" parent="0" />
        <mxCell id="9nM2_8MlVIlmQgohGuEi-4" value="" style="edgeStyle=orthogonalEdgeStyle;rounded=0;orthogonalLoop=1;jettySize=auto;html=1;" edge="1" parent="1" source="9nM2_8MlVIlmQgohGuEi-1" target="9nM2_8MlVIlmQgohGuEi-3">
          <mxGeometry relative="1" as="geometry" />
        </mxCell>
        <mxCell id="9nM2_8MlVIlmQgohGuEi-6" value="" style="edgeStyle=orthogonalEdgeStyle;rounded=0;orthogonalLoop=1;jettySize=auto;html=1;" edge="1" parent="1" source="9nM2_8MlVIlmQgohGuEi-1" target="9nM2_8MlVIlmQgohGuEi-5">
          <mxGeometry relative="1" as="geometry" />
        </mxCell>
        <mxCell id="9nM2_8MlVIlmQgohGuEi-1" value="&lt;font style=&quot;font-size: 12px;&quot;&gt;7&lt;/font&gt;" style="ellipse;whiteSpace=wrap;html=1;aspect=fixed;" vertex="1" parent="1">
          <mxGeometry x="250" width="40" height="40" as="geometry" />
        </mxCell>
        <mxCell id="9nM2_8MlVIlmQgohGuEi-8" value="" style="edgeStyle=orthogonalEdgeStyle;rounded=0;orthogonalLoop=1;jettySize=auto;html=1;" edge="1" parent="1" source="9nM2_8MlVIlmQgohGuEi-3" target="9nM2_8MlVIlmQgohGuEi-7">
          <mxGeometry relative="1" as="geometry" />
        </mxCell>
        <mxCell id="9nM2_8MlVIlmQgohGuEi-10" value="" style="edgeStyle=orthogonalEdgeStyle;rounded=0;orthogonalLoop=1;jettySize=auto;html=1;" edge="1" parent="1" source="9nM2_8MlVIlmQgohGuEi-3" target="9nM2_8MlVIlmQgohGuEi-9">
          <mxGeometry relative="1" as="geometry" />
        </mxCell>
        <mxCell id="9nM2_8MlVIlmQgohGuEi-3" value="8" style="ellipse;whiteSpace=wrap;html=1;" vertex="1" parent="1">
          <mxGeometry x="130" y="60" width="40" height="40" as="geometry" />
        </mxCell>
        <mxCell id="9nM2_8MlVIlmQgohGuEi-19" value="" style="edgeStyle=orthogonalEdgeStyle;rounded=0;orthogonalLoop=1;jettySize=auto;html=1;" edge="1" parent="1" source="9nM2_8MlVIlmQgohGuEi-5" target="9nM2_8MlVIlmQgohGuEi-18">
          <mxGeometry relative="1" as="geometry" />
        </mxCell>
        <mxCell id="9nM2_8MlVIlmQgohGuEi-21" value="" style="edgeStyle=orthogonalEdgeStyle;rounded=0;orthogonalLoop=1;jettySize=auto;html=1;" edge="1" parent="1" source="9nM2_8MlVIlmQgohGuEi-5" target="9nM2_8MlVIlmQgohGuEi-20">
          <mxGeometry relative="1" as="geometry" />
        </mxCell>
        <mxCell id="9nM2_8MlVIlmQgohGuEi-23" value="" style="edgeStyle=orthogonalEdgeStyle;rounded=0;orthogonalLoop=1;jettySize=auto;html=1;" edge="1" parent="1" source="9nM2_8MlVIlmQgohGuEi-5" target="9nM2_8MlVIlmQgohGuEi-22">
          <mxGeometry relative="1" as="geometry" />
        </mxCell>
        <mxCell id="9nM2_8MlVIlmQgohGuEi-5" value="9" style="ellipse;whiteSpace=wrap;html=1;" vertex="1" parent="1">
          <mxGeometry x="360" y="60" width="40" height="40" as="geometry" />
        </mxCell>
        <mxCell id="9nM2_8MlVIlmQgohGuEi-12" value="" style="edgeStyle=orthogonalEdgeStyle;rounded=0;orthogonalLoop=1;jettySize=auto;html=1;" edge="1" parent="1" source="9nM2_8MlVIlmQgohGuEi-7" target="9nM2_8MlVIlmQgohGuEi-11">
          <mxGeometry relative="1" as="geometry" />
        </mxCell>
        <mxCell id="9nM2_8MlVIlmQgohGuEi-13" value="" style="edgeStyle=orthogonalEdgeStyle;rounded=0;orthogonalLoop=1;jettySize=auto;html=1;" edge="1" parent="1" source="9nM2_8MlVIlmQgohGuEi-7" target="9nM2_8MlVIlmQgohGuEi-11">
          <mxGeometry relative="1" as="geometry" />
        </mxCell>
        <mxCell id="9nM2_8MlVIlmQgohGuEi-14" value="" style="edgeStyle=orthogonalEdgeStyle;rounded=0;orthogonalLoop=1;jettySize=auto;html=1;" edge="1" parent="1" source="9nM2_8MlVIlmQgohGuEi-7" target="9nM2_8MlVIlmQgohGuEi-11">
          <mxGeometry relative="1" as="geometry" />
        </mxCell>
        <mxCell id="9nM2_8MlVIlmQgohGuEi-15" value="" style="edgeStyle=orthogonalEdgeStyle;rounded=0;orthogonalLoop=1;jettySize=auto;html=1;" edge="1" parent="1" source="9nM2_8MlVIlmQgohGuEi-7" target="9nM2_8MlVIlmQgohGuEi-11">
          <mxGeometry relative="1" as="geometry" />
        </mxCell>
        <mxCell id="9nM2_8MlVIlmQgohGuEi-17" value="" style="edgeStyle=orthogonalEdgeStyle;rounded=0;orthogonalLoop=1;jettySize=auto;html=1;" edge="1" parent="1" source="9nM2_8MlVIlmQgohGuEi-7" target="9nM2_8MlVIlmQgohGuEi-16">
          <mxGeometry relative="1" as="geometry" />
        </mxCell>
        <mxCell id="9nM2_8MlVIlmQgohGuEi-7" value="2" style="ellipse;whiteSpace=wrap;html=1;" vertex="1" parent="1">
          <mxGeometry x="50" y="170" width="40" height="40" as="geometry" />
        </mxCell>
        <mxCell id="9nM2_8MlVIlmQgohGuEi-9" value="5" style="ellipse;whiteSpace=wrap;html=1;" vertex="1" parent="1">
          <mxGeometry x="200" y="170" width="40" height="40" as="geometry" />
        </mxCell>
        <mxCell id="9nM2_8MlVIlmQgohGuEi-11" value="1" style="ellipse;whiteSpace=wrap;html=1;" vertex="1" parent="1">
          <mxGeometry y="240" width="40" height="40" as="geometry" />
        </mxCell>
        <mxCell id="9nM2_8MlVIlmQgohGuEi-16" value="3" style="ellipse;whiteSpace=wrap;html=1;" vertex="1" parent="1">
          <mxGeometry x="100" y="240" width="40" height="40" as="geometry" />
        </mxCell>
        <mxCell id="9nM2_8MlVIlmQgohGuEi-18" value="4" style="ellipse;whiteSpace=wrap;html=1;" vertex="1" parent="1">
          <mxGeometry x="290" y="170" width="40" height="40" as="geometry" />
        </mxCell>
        <mxCell id="9nM2_8MlVIlmQgohGuEi-20" value="10" style="ellipse;whiteSpace=wrap;html=1;" vertex="1" parent="1">
          <mxGeometry x="430" y="170" width="40" height="40" as="geometry" />
        </mxCell>
        <mxCell id="9nM2_8MlVIlmQgohGuEi-22" value="6" style="ellipse;whiteSpace=wrap;html=1;" vertex="1" parent="1">
          <mxGeometry x="360" y="170" width="40" height="40" as="geometry" />
        </mxCell>
        <mxCell id="9nM2_8MlVIlmQgohGuEi-26" value="7" style="ellipse;whiteSpace=wrap;html=1;" vertex="1" parent="1">
          <mxGeometry x="550" y="60" width="40" height="40" as="geometry" />
        </mxCell>
        <mxCell id="9nM2_8MlVIlmQgohGuEi-27" value="6" style="ellipse;whiteSpace=wrap;html=1;" vertex="1" parent="1">
          <mxGeometry x="530" y="140" width="40" height="40" as="geometry" />
        </mxCell>
        <mxCell id="9nM2_8MlVIlmQgohGuEi-28" value="5" style="ellipse;whiteSpace=wrap;html=1;" vertex="1" parent="1">
          <mxGeometry x="600" y="220" width="40" height="40" as="geometry" />
        </mxCell>
        <mxCell id="9nM2_8MlVIlmQgohGuEi-29" value="4" style="ellipse;whiteSpace=wrap;html=1;" vertex="1" parent="1">
          <mxGeometry x="720" y="220" width="40" height="40" as="geometry" />
        </mxCell>
        <mxCell id="9nM2_8MlVIlmQgohGuEi-30" value="3" style="ellipse;whiteSpace=wrap;html=1;" vertex="1" parent="1">
          <mxGeometry x="770" y="150" width="40" height="40" as="geometry" />
        </mxCell>
        <mxCell id="9nM2_8MlVIlmQgohGuEi-31" value="2" style="ellipse;whiteSpace=wrap;html=1;" vertex="1" parent="1">
          <mxGeometry x="750" y="60" width="40" height="40" as="geometry" />
        </mxCell>
        <mxCell id="9nM2_8MlVIlmQgohGuEi-32" value="1" style="ellipse;whiteSpace=wrap;html=1;" vertex="1" parent="1">
          <mxGeometry x="650" y="10" width="40" height="40" as="geometry" />
        </mxCell>
        <mxCell id="9nM2_8MlVIlmQgohGuEi-47" value="" style="endArrow=none;html=1;rounded=0;exitX=0.992;exitY=0.675;exitDx=0;exitDy=0;exitPerimeter=0;entryX=0;entryY=0;entryDx=0;entryDy=0;" edge="1" parent="1" source="9nM2_8MlVIlmQgohGuEi-32" target="9nM2_8MlVIlmQgohGuEi-31">
          <mxGeometry width="50" height="50" relative="1" as="geometry">
            <mxPoint x="450" y="250" as="sourcePoint" />
            <mxPoint x="500" y="200" as="targetPoint" />
          </mxGeometry>
        </mxCell>
        <mxCell id="9nM2_8MlVIlmQgohGuEi-50" value="" style="endArrow=none;html=1;rounded=0;exitX=0.992;exitY=0.675;exitDx=0;exitDy=0;exitPerimeter=0;" edge="1" parent="1" source="9nM2_8MlVIlmQgohGuEi-32" target="9nM2_8MlVIlmQgohGuEi-30">
          <mxGeometry width="50" height="50" relative="1" as="geometry">
            <mxPoint x="700" y="47" as="sourcePoint" />
            <mxPoint x="766" y="76" as="targetPoint" />
          </mxGeometry>
        </mxCell>
        <mxCell id="9nM2_8MlVIlmQgohGuEi-51" value="" style="endArrow=none;html=1;rounded=0;exitX=1;exitY=1;exitDx=0;exitDy=0;entryX=0;entryY=0;entryDx=0;entryDy=0;" edge="1" parent="1" source="9nM2_8MlVIlmQgohGuEi-32" target="9nM2_8MlVIlmQgohGuEi-29">
          <mxGeometry width="50" height="50" relative="1" as="geometry">
            <mxPoint x="688" y="59" as="sourcePoint" />
            <mxPoint x="786" y="165" as="targetPoint" />
          </mxGeometry>
        </mxCell>
        <mxCell id="9nM2_8MlVIlmQgohGuEi-52" value="" style="endArrow=none;html=1;rounded=0;exitX=0.5;exitY=1;exitDx=0;exitDy=0;" edge="1" parent="1" source="9nM2_8MlVIlmQgohGuEi-32" target="9nM2_8MlVIlmQgohGuEi-28">
          <mxGeometry width="50" height="50" relative="1" as="geometry">
            <mxPoint x="694" y="54" as="sourcePoint" />
            <mxPoint x="736" y="236" as="targetPoint" />
          </mxGeometry>
        </mxCell>
        <mxCell id="9nM2_8MlVIlmQgohGuEi-53" value="" style="endArrow=none;html=1;rounded=0;exitX=0;exitY=1;exitDx=0;exitDy=0;" edge="1" parent="1" source="9nM2_8MlVIlmQgohGuEi-32" target="9nM2_8MlVIlmQgohGuEi-27">
          <mxGeometry width="50" height="50" relative="1" as="geometry">
            <mxPoint x="680" y="60" as="sourcePoint" />
            <mxPoint x="640" y="230" as="targetPoint" />
          </mxGeometry>
        </mxCell>
        <mxCell id="9nM2_8MlVIlmQgohGuEi-54" value="" style="endArrow=none;html=1;rounded=0;exitX=0;exitY=0.5;exitDx=0;exitDy=0;entryX=0.708;entryY=0.025;entryDx=0;entryDy=0;entryPerimeter=0;" edge="1" parent="1" source="9nM2_8MlVIlmQgohGuEi-32" target="9nM2_8MlVIlmQgohGuEi-26">
          <mxGeometry width="50" height="50" relative="1" as="geometry">
            <mxPoint x="666" y="54" as="sourcePoint" />
            <mxPoint x="573" y="155" as="targetPoint" />
          </mxGeometry>
        </mxCell>
        <mxCell id="9nM2_8MlVIlmQgohGuEi-56" value="" style="endArrow=none;html=1;rounded=0;exitX=0.658;exitY=1.008;exitDx=0;exitDy=0;exitPerimeter=0;" edge="1" parent="1" source="9nM2_8MlVIlmQgohGuEi-31" target="9nM2_8MlVIlmQgohGuEi-30">
          <mxGeometry width="50" height="50" relative="1" as="geometry">
            <mxPoint x="660" y="40" as="sourcePoint" />
            <mxPoint x="588" y="71" as="targetPoint" />
          </mxGeometry>
        </mxCell>
        <mxCell id="9nM2_8MlVIlmQgohGuEi-57" value="" style="endArrow=none;html=1;rounded=0;exitX=0.358;exitY=0.958;exitDx=0;exitDy=0;exitPerimeter=0;entryX=0.5;entryY=0;entryDx=0;entryDy=0;" edge="1" parent="1" source="9nM2_8MlVIlmQgohGuEi-31" target="9nM2_8MlVIlmQgohGuEi-29">
          <mxGeometry width="50" height="50" relative="1" as="geometry">
            <mxPoint x="786" y="110" as="sourcePoint" />
            <mxPoint x="796" y="160" as="targetPoint" />
          </mxGeometry>
        </mxCell>
        <mxCell id="9nM2_8MlVIlmQgohGuEi-58" value="" style="endArrow=none;html=1;rounded=0;exitX=0;exitY=1;exitDx=0;exitDy=0;" edge="1" parent="1" source="9nM2_8MlVIlmQgohGuEi-31" target="9nM2_8MlVIlmQgohGuEi-28">
          <mxGeometry width="50" height="50" relative="1" as="geometry">
            <mxPoint x="774" y="108" as="sourcePoint" />
            <mxPoint x="750" y="230" as="targetPoint" />
          </mxGeometry>
        </mxCell>
        <mxCell id="9nM2_8MlVIlmQgohGuEi-59" value="" style="endArrow=none;html=1;rounded=0;exitX=0;exitY=0.5;exitDx=0;exitDy=0;entryX=1;entryY=0.5;entryDx=0;entryDy=0;" edge="1" parent="1" source="9nM2_8MlVIlmQgohGuEi-31" target="9nM2_8MlVIlmQgohGuEi-27">
          <mxGeometry width="50" height="50" relative="1" as="geometry">
            <mxPoint x="766" y="104" as="sourcePoint" />
            <mxPoint x="644" y="235" as="targetPoint" />
          </mxGeometry>
        </mxCell>
        <mxCell id="9nM2_8MlVIlmQgohGuEi-60" value="" style="endArrow=none;html=1;rounded=0;entryX=1;entryY=0.5;entryDx=0;entryDy=0;" edge="1" parent="1" source="9nM2_8MlVIlmQgohGuEi-31" target="9nM2_8MlVIlmQgohGuEi-26">
          <mxGeometry width="50" height="50" relative="1" as="geometry">
            <mxPoint x="760" y="90" as="sourcePoint" />
            <mxPoint x="580" y="170" as="targetPoint" />
          </mxGeometry>
        </mxCell>
        <mxCell id="9nM2_8MlVIlmQgohGuEi-61" value="" style="endArrow=none;html=1;rounded=0;exitX=1;exitY=0;exitDx=0;exitDy=0;entryX=0.292;entryY=0.992;entryDx=0;entryDy=0;entryPerimeter=0;" edge="1" parent="1" source="9nM2_8MlVIlmQgohGuEi-29" target="9nM2_8MlVIlmQgohGuEi-30">
          <mxGeometry width="50" height="50" relative="1" as="geometry">
            <mxPoint x="786" y="110" as="sourcePoint" />
            <mxPoint x="796" y="160" as="targetPoint" />
          </mxGeometry>
        </mxCell>
        <mxCell id="9nM2_8MlVIlmQgohGuEi-62" value="" style="endArrow=none;html=1;rounded=0;entryX=0.108;entryY=0.725;entryDx=0;entryDy=0;entryPerimeter=0;" edge="1" parent="1" source="9nM2_8MlVIlmQgohGuEi-28" target="9nM2_8MlVIlmQgohGuEi-30">
          <mxGeometry width="50" height="50" relative="1" as="geometry">
            <mxPoint x="764" y="236" as="sourcePoint" />
            <mxPoint x="792" y="200" as="targetPoint" />
          </mxGeometry>
        </mxCell>
        <mxCell id="9nM2_8MlVIlmQgohGuEi-63" value="" style="endArrow=none;html=1;rounded=0;exitX=1;exitY=1;exitDx=0;exitDy=0;entryX=0;entryY=0.5;entryDx=0;entryDy=0;" edge="1" parent="1" source="9nM2_8MlVIlmQgohGuEi-27" target="9nM2_8MlVIlmQgohGuEi-30">
          <mxGeometry width="50" height="50" relative="1" as="geometry">
            <mxPoint x="652" y="239" as="sourcePoint" />
            <mxPoint x="784" y="189" as="targetPoint" />
          </mxGeometry>
        </mxCell>
        <mxCell id="9nM2_8MlVIlmQgohGuEi-65" value="" style="endArrow=none;html=1;rounded=0;exitX=1;exitY=1;exitDx=0;exitDy=0;" edge="1" parent="1" source="9nM2_8MlVIlmQgohGuEi-26" target="9nM2_8MlVIlmQgohGuEi-30">
          <mxGeometry width="50" height="50" relative="1" as="geometry">
            <mxPoint x="582" y="179" as="sourcePoint" />
            <mxPoint x="780" y="180" as="targetPoint" />
          </mxGeometry>
        </mxCell>
        <mxCell id="9nM2_8MlVIlmQgohGuEi-66" value="" style="endArrow=none;html=1;rounded=0;" edge="1" parent="1" source="9nM2_8MlVIlmQgohGuEi-28" target="9nM2_8MlVIlmQgohGuEi-29">
          <mxGeometry width="50" height="50" relative="1" as="geometry">
            <mxPoint x="652" y="239" as="sourcePoint" />
            <mxPoint x="784" y="189" as="targetPoint" />
          </mxGeometry>
        </mxCell>
        <mxCell id="9nM2_8MlVIlmQgohGuEi-67" value="" style="endArrow=none;html=1;rounded=0;" edge="1" parent="1" source="9nM2_8MlVIlmQgohGuEi-27" target="9nM2_8MlVIlmQgohGuEi-29">
          <mxGeometry width="50" height="50" relative="1" as="geometry">
            <mxPoint x="650" y="250" as="sourcePoint" />
            <mxPoint x="730" y="250" as="targetPoint" />
          </mxGeometry>
        </mxCell>
        <mxCell id="9nM2_8MlVIlmQgohGuEi-68" value="" style="endArrow=none;html=1;rounded=0;" edge="1" parent="1" source="9nM2_8MlVIlmQgohGuEi-26">
          <mxGeometry width="50" height="50" relative="1" as="geometry">
            <mxPoint x="578" y="178" as="sourcePoint" />
            <mxPoint x="730" y="230" as="targetPoint" />
          </mxGeometry>
        </mxCell>
        <mxCell id="9nM2_8MlVIlmQgohGuEi-69" value="" style="endArrow=none;html=1;rounded=0;exitX=1;exitY=1;exitDx=0;exitDy=0;" edge="1" parent="1" source="9nM2_8MlVIlmQgohGuEi-27" target="9nM2_8MlVIlmQgohGuEi-28">
          <mxGeometry width="50" height="50" relative="1" as="geometry">
            <mxPoint x="650" y="250" as="sourcePoint" />
            <mxPoint x="730" y="250" as="targetPoint" />
          </mxGeometry>
        </mxCell>
        <mxCell id="9nM2_8MlVIlmQgohGuEi-70" value="" style="endArrow=none;html=1;rounded=0;exitX=1;exitY=1;exitDx=0;exitDy=0;entryX=0.358;entryY=-0.058;entryDx=0;entryDy=0;entryPerimeter=0;" edge="1" parent="1" source="9nM2_8MlVIlmQgohGuEi-26" target="9nM2_8MlVIlmQgohGuEi-28">
          <mxGeometry width="50" height="50" relative="1" as="geometry">
            <mxPoint x="574" y="184" as="sourcePoint" />
            <mxPoint x="617" y="235" as="targetPoint" />
          </mxGeometry>
        </mxCell>
        <mxCell id="9nM2_8MlVIlmQgohGuEi-71" value="" style="endArrow=none;html=1;rounded=0;exitX=0.358;exitY=0.925;exitDx=0;exitDy=0;entryX=0.5;entryY=0;entryDx=0;entryDy=0;exitPerimeter=0;" edge="1" parent="1" source="9nM2_8MlVIlmQgohGuEi-26" target="9nM2_8MlVIlmQgohGuEi-27">
          <mxGeometry width="50" height="50" relative="1" as="geometry">
            <mxPoint x="594" y="104" as="sourcePoint" />
            <mxPoint x="624" y="228" as="targetPoint" />
          </mxGeometry>
        </mxCell>
      </root>
    </mxGraphModel>
  </diagram>
</mxfile>
